<svg width="31" height="30" viewBox="0 0 31 30" fill="none" xmlns="http://www.w3.org/2000/svg">
<path fill-rule="evenodd" clip-rule="evenodd" d="M15.0629 30C23.382 30 30.1259 23.2843 30.1259 15C30.1259 6.71573 23.382 0 15.0629 0C6.74391 0 0 6.71573 0 15C0 16.528 0.229436 18.0027 0.655872 19.3917C0.764691 19.4112 0.940632 19.4558 1.19699 19.5306L0.79667 13.258C0.79667 13.1431 0.991427 13.0878 1.16986 13.0371C1.26779 13.0093 1.3608 12.9829 1.414 12.9488C1.55927 12.8573 4.55091 13.9451 4.71072 14.0173L8.53633 15.7406C9.52421 15.1196 10.7058 14.8693 11.868 15.0378L15.3449 10.8163C15.3885 7.44684 18.1488 4.732 21.5434 4.72718C24.7153 4.76088 27.3448 7.16765 27.645 10.3013C27.9646 13.69 25.4659 16.6937 22.0567 17.0162L16.265 21.1317C15.9115 22.9368 14.6137 24.4146 12.8607 25.0018C10.1731 25.9068 7.25305 24.4723 6.3475 21.796L4.333 21.1317C4.18364 21.0845 1.44219 19.9488 0.699621 19.5317C2.62884 25.601 8.33001 30 15.0629 30ZM24.6429 10.8884C24.6429 12.5898 23.2553 13.9691 21.5436 13.9691C19.8319 13.9691 18.4443 12.5898 18.4443 10.8884C18.4443 9.18703 19.8319 7.80776 21.5436 7.80776C23.2553 7.80776 24.6429 9.18703 24.6429 10.8884ZM23.6119 10.8885C23.6119 12.0236 22.6861 12.9438 21.5441 12.9438C20.4021 12.9438 19.4763 12.0236 19.4763 10.8885C19.4763 9.75329 20.4021 8.83307 21.5441 8.83307C22.6861 8.83307 23.6119 9.75329 23.6119 10.8885ZM9.86875 22.9031C10.2852 23.1053 10.7452 23.2112 11.2101 23.2112C11.5636 23.2112 11.9074 23.1534 12.2464 23.0427C13.026 22.7732 13.6604 22.21 14.0187 21.4735C14.7645 19.938 14.1156 18.0992 12.5757 17.3579C12.3142 17.2328 12.0091 17.3387 11.8832 17.5938C11.7573 17.8537 11.8638 18.157 12.1205 18.2821C12.1544 18.2966 12.1883 18.311 12.2222 18.3303C13.2391 18.8501 13.6313 20.0872 13.1083 21.0981C12.5854 22.1089 11.336 22.4988 10.3239 21.9789C10.0625 21.8538 9.75738 21.9597 9.63147 22.2148C9.50557 22.4747 9.6121 22.778 9.86875 22.9031Z" fill="#FFB548"/>
</svg>
