<svg width="19" height="14" viewBox="0 0 19 14" fill="none" xmlns="http://www.w3.org/2000/svg">
<path opacity="0.3" d="M18.025 1.65741C17.35 1.94305 16.6341 2.13057 15.9011 2.21376C16.6635 1.77589 17.25 1.08391 17.5259 0.258178C16.8001 0.669862 16.0059 0.959909 15.1777 1.11578C14.4788 0.40239 13.5014 -0.00169113 12.4788 5.32016e-06C10.4374 5.32016e-06 8.78057 1.58201 8.78057 3.53353C8.78057 3.81082 8.81323 4.08108 8.87716 4.33915C5.80334 4.19154 3.07911 2.78528 1.25483 0.64692C0.93629 1.16821 0.754598 1.77589 0.754598 2.42368C0.754598 3.64915 1.4072 4.73097 2.39926 5.3648C1.81189 5.3476 1.23741 5.19601 0.724009 4.92275V4.96782C0.724009 6.67951 1.99885 8.10787 3.68973 8.43319C3.14516 8.57412 2.57417 8.59479 2.02 8.49364C2.49079 9.89782 3.85694 10.9193 5.47446 10.949C4.20905 11.8953 2.61476 12.4613 0.881783 12.4613C0.587106 12.461 0.292693 12.4445 0 12.4118C1.63638 13.4142 3.5806 14 5.6688 14C12.4708 14 16.1897 8.6141 16.1897 3.94348C16.1897 3.79071 16.1897 3.63794 16.1782 3.48627C16.9018 2.98587 17.5268 2.36664 18.0239 1.65741H18.025Z" fill="white"/>
</svg>
