<svg width="20" height="19" viewBox="0 0 20 19" fill="none" xmlns="http://www.w3.org/2000/svg">
<path fill-rule="evenodd" clip-rule="evenodd" d="M19.1489 12.9451V8.87363V0H2.12766L0 2.2967V14.4066H5.31915V18.1648H7.65957L10.2128 15.4506H16.5957L19.1489 12.9451ZM6.59566 12.7363H3.1914C2.95736 12.7363 2.76587 12.5484 2.76587 12.3188V2.08799C2.76587 1.85832 2.95736 1.67041 3.1914 1.67041H16.8084C17.0425 1.67041 17.234 1.85832 17.234 2.08799V10.0221C17.234 10.1369 17.1914 10.2413 17.1116 10.3196L14.7712 12.6163C14.6914 12.6946 14.5797 12.7363 14.468 12.7363H10.5584L7.26055 14.96C7.1914 15.0069 7.10629 15.033 7.02119 15.033C6.95204 15.033 6.88821 15.0174 6.82438 14.9861C6.68076 14.913 6.59566 14.7721 6.59566 14.6155V12.7363Z" fill="white"/>
<path d="M12.9787 9.08256V4.90674H11.2766V9.08256H12.9787ZM8.72337 9.08256V4.90674H7.02124V9.08256H8.72337Z" fill="white"/>
</svg>
